<svg id="visual" viewBox="0 0 900 450" width="900" height="450" xmlns="http://www.w3.org/2000/svg" xmlns:xlink="http://www.w3.org/1999/xlink" version="1.1"><rect x="0" y="0" width="900" height="450" fill="#7B2CBF"></rect><defs><linearGradient id="grad1_0" x1="50%" y1="0%" x2="100%" y2="100%"><stop offset="10%" stop-color="#7b2cbf" stop-opacity="1"></stop><stop offset="90%" stop-color="#7b2cbf" stop-opacity="1"></stop></linearGradient></defs><defs><linearGradient id="grad2_0" x1="0%" y1="0%" x2="50%" y2="100%"><stop offset="10%" stop-color="#7b2cbf" stop-opacity="1"></stop><stop offset="90%" stop-color="#7b2cbf" stop-opacity="1"></stop></linearGradient></defs><g transform="translate(900, 0)"><path d="M0 166C-6.9 168.6 -13.9 171.1 -20.9 171.7C-27.8 172.4 -34.9 171 -41.6 168.9C-48.4 166.8 -54.9 164 -60.6 159.9C-66.4 155.8 -71.5 150.5 -76.7 146.1C-81.9 141.7 -87.2 138.2 -94.3 136.6C-101.4 135 -110.4 135.2 -118.7 134C-127 132.7 -134.8 130 -142.2 126C-149.7 122 -156.8 116.8 -157.2 108.5C-157.6 100.2 -151.3 88.7 -158.5 83.2C-165.7 77.7 -186.3 78.3 -189.3 71.8C-192.3 65.3 -177.7 51.8 -170.9 42.1C-164.1 32.5 -165.3 26.7 -167.8 20.4C-170.3 14 -174.1 7 -178 0L0 0Z" fill="#10002B"></path></g><g transform="translate(0, 450)"><path d="M0 -202.5C8 -199.1 16 -195.6 23.4 -192.6C30.8 -189.6 37.6 -186.9 46.2 -187.4C54.8 -187.8 65.1 -191.4 69.1 -182.3C73.2 -173.3 71.1 -151.7 76.2 -145.2C81.3 -138.8 93.7 -147.5 103.4 -149.8C113.1 -152.1 120.1 -148 127.3 -143.7C134.5 -139.5 141.8 -135.1 141.5 -125.3C141.1 -115.6 133.1 -100.4 134.1 -92.6C135.2 -84.8 145.4 -84.2 156.7 -82.3C168 -80.3 180.5 -76.9 185.1 -70.2C189.8 -63.5 186.7 -53.5 180.6 -44.5C174.5 -35.5 165.5 -27.5 166.8 -20.3C168 -13 179.5 -6.5 191 0L0 0Z" fill="#10002B"></path></g></svg>