<svg id="visual" viewBox="0 0 1300 1080" width="1300" height="1080" xmlns="http://www.w3.org/2000/svg" xmlns:xlink="http://www.w3.org/1999/xlink" version="1.1"><rect x="0" y="0" width="1300" height="1080" fill="#7B2CBF"></rect><defs><linearGradient id="grad1_0" x1="16.9%" y1="100%" x2="100%" y2="0%"><stop offset="25.925925925925927%" stop-color="#7b2cbf" stop-opacity="1"></stop><stop offset="74.07407407407408%" stop-color="#7b2cbf" stop-opacity="1"></stop></linearGradient></defs><defs><linearGradient id="grad2_0" x1="0%" y1="100%" x2="83.1%" y2="0%"><stop offset="25.925925925925927%" stop-color="#7b2cbf" stop-opacity="1"></stop><stop offset="74.07407407407408%" stop-color="#7b2cbf" stop-opacity="1"></stop></linearGradient></defs><g transform="translate(1300, 1080)"><path d="M-718.3 0C-724.2 -32.7 -730.2 -65.4 -712.1 -93.8C-694.1 -122.1 -652.1 -146.2 -619.2 -165.9C-586.3 -185.6 -562.5 -201 -572.8 -237.3C-583.1 -273.5 -627.6 -330.6 -619.2 -357.5C-610.8 -384.4 -549.6 -381 -522 -400.6C-494.5 -420.2 -500.6 -462.7 -480.1 -480.1C-459.7 -497.5 -412.7 -489.7 -383.5 -499.8C-354.4 -509.9 -343.1 -538 -326 -564.6C-308.9 -591.3 -286.1 -616.4 -257.9 -622.7C-229.7 -629 -196.2 -616.6 -168.5 -628.8C-140.8 -641.1 -118.9 -678 -91.8 -697C-64.6 -716 -32.3 -717.1 0 -718.3L0 0Z" fill="#10002B"></path></g><g transform="translate(0, 0)"><path d="M718.3 0C654.4 22.3 590.4 44.6 599.8 79C609.2 113.3 691.9 159.7 690.6 185.1C689.4 210.4 604.1 214.9 577.4 239.2C550.7 263.5 582.5 307.7 576.8 333C571 358.3 527.8 364.7 514.1 394.5C500.4 424.2 516.2 477.3 502 502C487.9 526.8 443.8 523.2 418.8 545.8C393.8 568.5 388 617.3 359.1 622.1C330.3 626.8 278.5 587.3 247.2 596.8C215.9 606.3 205 664.8 179.9 671.3C154.8 677.8 115.5 632.4 83.1 631.6C50.8 630.7 25.4 674.5 0 718.3L0 0Z" fill="#10002B"></path></g></svg>