<svg id="visual" viewBox="0 0 1300 1080" width="1300" height="1080" xmlns="http://www.w3.org/2000/svg" xmlns:xlink="http://www.w3.org/1999/xlink" version="1.1"><rect x="0" y="0" width="1300" height="1080" fill="#7B2CBF"></rect><defs><linearGradient id="grad1_0" x1="16.9%" y1="100%" x2="100%" y2="0%"><stop offset="25.925925925925927%" stop-color="#7b2cbf" stop-opacity="1"></stop><stop offset="74.07407407407408%" stop-color="#7b2cbf" stop-opacity="1"></stop></linearGradient></defs><defs><linearGradient id="grad2_0" x1="0%" y1="100%" x2="83.1%" y2="0%"><stop offset="25.925925925925927%" stop-color="#7b2cbf" stop-opacity="1"></stop><stop offset="74.07407407407408%" stop-color="#7b2cbf" stop-opacity="1"></stop></linearGradient></defs><g transform="translate(1300, 1080)"><path d="M-410 0C-440.8 -48.9 -471.6 -97.8 -476.5 -154.8C-481.4 -211.8 -460.3 -277 -410.2 -298C-360.1 -319.1 -280.9 -296 -238.1 -327.7C-195.2 -359.3 -188.7 -445.6 -155.1 -477.4C-121.5 -509.3 -60.8 -486.6 0 -464L0 0Z" fill="#10002B"></path></g><g transform="translate(0, 0)"><path d="M438 0C444.6 45.6 451.3 91.2 452.7 147.1C454.1 203 450.4 269.2 410.2 298C370 326.8 293.3 318.1 243.3 334.9C193.4 351.7 170.2 394 134.1 412.8C98 431.5 49 426.8 0 422L0 0Z" fill="#10002B"></path></g></svg>